<?xml version="1.0" encoding="utf-8"?>
<!-- Generator: Adobe Illustrator 23.0.1, SVG Export Plug-In . SVG Version: 6.00 Build 0)  -->
<svg version="1.1" id="Livello_1" xmlns="http://www.w3.org/2000/svg" xmlns:xlink="http://www.w3.org/1999/xlink" x="0px" y="0px"
	 viewBox="0 0 30 30" style="enable-background:new 0 0 30 30;" xml:space="preserve">
<style type="text/css">
	.st0{fill:#FF0000;}
	.st1{fill:#FFFFFF;}
</style>
<g>
	<g>
		<g>
			<path class="st0" d="M5.6,2c0,0-4.1,0-4.1,4.1v17.8c0,0,0,4.1,4.1,4.1h17.8c0,0,4.1,0,4.1-4.1V6.1c0,0,0-4.1-4.1-4.1H5.6z"/>
			<path class="st1" d="M23.4,28.5H5.6c-3.6,0-4.6-3-4.6-4.6V6.1c0-3.6,3-4.6,4.6-4.6h17.8c3.6,0,4.6,3,4.6,4.6v17.8
				C28,27.5,25,28.5,23.4,28.5z M5.6,2.5C5.5,2.5,2,2.6,2,6.1v17.8c0,0.1,0.1,3.6,3.6,3.6h17.8c0.1,0,3.6-0.1,3.6-3.6V6.1
				c0-0.1-0.1-3.6-3.6-3.6H5.6z"/>
		</g>
		<g>
			<path class="st0" d="M5.6,2c0,0-4.1,0-4.1,4.1v17.8c0,0,0,4.1,4.1,4.1h17.8c0,0,4.1,0,4.1-4.1V6.1c0,0,0-4.1-4.1-4.1H5.6z"/>
			<path class="st1" d="M23.4,28.5H5.6c-3.6,0-4.6-3-4.6-4.6V6.1c0-3.6,3-4.6,4.6-4.6h17.8c3.6,0,4.6,3,4.6,4.6v17.8
				C28,27.5,25,28.5,23.4,28.5z M5.6,2.5C5.5,2.5,2,2.6,2,6.1v17.8c0,0.1,0.1,3.6,3.6,3.6h17.8c0.1,0,3.6-0.1,3.6-3.6V6.1
				c0-0.1-0.1-3.6-3.6-3.6H5.6z"/>
		</g>
	</g>
	<g>
		
			<rect x="13.6" y="4.8" transform="matrix(0.7071 -0.7071 0.7071 0.7071 -6.3597 14.6461)" class="st1" width="1.9" height="20.5"/>
		<rect x="4.3" y="14.1" transform="matrix(0.707 -0.7072 0.7072 0.707 -6.3598 14.6503)" class="st1" width="20.5" height="1.9"/>
	</g>
</g>
</svg>
