<?xml version="1.0" encoding="UTF-8" standalone="no"?>
<svg
   xmlns:dc="http://purl.org/dc/elements/1.1/"
   xmlns:cc="http://creativecommons.org/ns#"
   xmlns:rdf="http://www.w3.org/1999/02/22-rdf-syntax-ns#"
   xmlns:svg="http://www.w3.org/2000/svg"
   xmlns="http://www.w3.org/2000/svg"
   xmlns:sodipodi="http://sodipodi.sourceforge.net/DTD/sodipodi-0.dtd"
   xmlns:inkscape="http://www.inkscape.org/namespaces/inkscape"
   version="1.1"
   id="Livello_1"
   x="0px"
   y="0px"
   viewBox="0 0 15.3 11"
   xml:space="preserve"
   sodipodi:docname="level-l2.svg"
   width="15.3"
   height="11"
   inkscape:version="1.0.1 (c497b03c, 2020-09-10)"><metadata
   id="metadata846"><rdf:RDF><cc:Work
       rdf:about=""><dc:format>image/svg+xml</dc:format><dc:type
         rdf:resource="http://purl.org/dc/dcmitype/StillImage" /><dc:title></dc:title></cc:Work></rdf:RDF></metadata><defs
   id="defs844" /><sodipodi:namedview
   pagecolor="#ffffff"
   bordercolor="#666666"
   borderopacity="1"
   objecttolerance="10"
   gridtolerance="10"
   guidetolerance="10"
   inkscape:pageopacity="0"
   inkscape:pageshadow="2"
   inkscape:window-width="1437"
   inkscape:window-height="854"
   id="namedview842"
   showgrid="false"
   fit-margin-top="0"
   fit-margin-left="0"
   fit-margin-right="0"
   fit-margin-bottom="0"
   inkscape:zoom="32.220583"
   inkscape:cx="9"
   inkscape:cy="5.5"
   inkscape:window-x="0"
   inkscape:window-y="23"
   inkscape:window-maximized="0"
   inkscape:current-layer="Livello_1" />
<style
   type="text/css"
   id="style833">
	.st0{fill:#008ED2;}
</style>
<g
   id="g837"
   transform="translate(-1,-1)">
	<path
   class="st0"
   d="M 6.5,1 C 3.5,1 1,3.5 1,6.5 1,9.5 3.5,12 6.5,12 9.5,12 12,9.5 12,6.5 12,3.5 9.5,1 6.5,1 Z M 9,7 H 7 V 9 H 6 V 7 H 4 V 6 H 6 V 4 h 1 v 2 h 2 z"
   id="path835" />
</g>
<polygon
   class="st0"
   points="14.1,9 14.1,7.3 16,7.3 16,6.4 14.1,6.4 14.1,5 16.3,5 16.3,4 13,4 13,9 "
   id="polygon839"
   transform="translate(-1,-1)" />
</svg>
