<?xml version="1.0" encoding="UTF-8" standalone="no"?>
<svg
   xmlns:dc="http://purl.org/dc/elements/1.1/"
   xmlns:cc="http://creativecommons.org/ns#"
   xmlns:rdf="http://www.w3.org/1999/02/22-rdf-syntax-ns#"
   xmlns:svg="http://www.w3.org/2000/svg"
   xmlns="http://www.w3.org/2000/svg"
   version="1.1"
   id="Livello_1"
   x="0px"
   y="0px"
   viewBox="0 0 17.4 11"
   xml:space="preserve"
   width="17.4"
   height="11"><metadata
   id="metadata861"><rdf:RDF><cc:Work
       rdf:about=""><dc:format>image/svg+xml</dc:format><dc:type
         rdf:resource="http://purl.org/dc/dcmitype/StillImage" /><dc:title></dc:title></cc:Work></rdf:RDF></metadata><defs
   id="defs859">
	
</defs>
<style
   type="text/css"
   id="style848">
	.st0{fill:#008ED2;}
</style>
<path
   class="st0"
   d="M 5.5,0 C 2.5,0 0,2.5 0,5.5 0,8.5 2.5,11 5.5,11 8.5,11 11,8.5 11,5.5 11,2.5 8.5,0 5.5,0 Z M 8,6 H 6 V 8 H 5 V 6 H 3 V 5 H 5 V 3 h 1 v 2 h 2 z"
   id="path850" />
<path
   class="st0"
   d="M 16.4,3 14.7,6.1 13,3 h -1 v 5 h 1 V 5.1 L 14.6,8 h 0.1 L 16.3,5.1 V 8 h 1.1 V 3 Z"
   id="path854" />
</svg>
