<?xml version="1.0" encoding="UTF-8" standalone="no"?>
<svg
   xmlns:dc="http://purl.org/dc/elements/1.1/"
   xmlns:cc="http://creativecommons.org/ns#"
   xmlns:rdf="http://www.w3.org/1999/02/22-rdf-syntax-ns#"
   xmlns:svg="http://www.w3.org/2000/svg"
   xmlns="http://www.w3.org/2000/svg"
   version="1.1"
   id="Livello_1"
   x="0px"
   y="0px"
   viewBox="0 0 15.3 11"
   xml:space="preserve"
   width="15.3"
   height="11"><metadata
   id="metadata846"><rdf:RDF><cc:Work
       rdf:about=""><dc:format>image/svg+xml</dc:format><dc:type
         rdf:resource="http://purl.org/dc/dcmitype/StillImage" /><dc:title></dc:title></cc:Work></rdf:RDF></metadata><defs
   id="defs844">
	
</defs>
<style
   type="text/css"
   id="style833">
	.st0{fill:#3a4d98;}
</style>
<path
   class="st0"
   d="M 5.5,0 C 2.5,0 0,2.5 0,5.5 0,8.5 2.5,11 5.5,11 8.5,11 11,8.5 11,5.5 11,2.5 8.5,0 5.5,0 Z M 8,6 H 6 V 8 H 5 V 6 H 3 V 5 H 5 V 3 h 1 v 2 h 2 z"
   id="path835" />
<path
   id="polygon839"
   style="fill:#3a4d98"
   d="m 13.1,8 c 0,-0.5666667 0,-1.1333333 0,-1.7 0.633333,0 1.266667,0 1.9,0 0,-0.3 0,-0.6 0,-0.9 -0.633333,0 -1.266667,0 -1.9,0 0,-0.4666667 0,-0.9333333 0,-1.4 0.733333,0 1.466667,0 2.2,0 0,-0.3333333 0,-0.6666667 0,-1 -1.1,0 -2.2,0 -3.3,0 0,1.6666667 0,3.3333333 0,5 0.366667,0 0.733333,0 1.1,0 z" />
</svg>
