<?xml version="1.0" encoding="UTF-8" standalone="no"?>
<svg
   xmlns:dc="http://purl.org/dc/elements/1.1/"
   xmlns:cc="http://creativecommons.org/ns#"
   xmlns:rdf="http://www.w3.org/1999/02/22-rdf-syntax-ns#"
   xmlns:svg="http://www.w3.org/2000/svg"
   xmlns="http://www.w3.org/2000/svg"
   xmlns:sodipodi="http://sodipodi.sourceforge.net/DTD/sodipodi-0.dtd"
   xmlns:inkscape="http://www.inkscape.org/namespaces/inkscape"
   version="1.1"
   id="Livello_1"
   x="0px"
   y="0px"
   viewBox="0 0 17.4 11"
   xml:space="preserve"
   sodipodi:docname="level-l3.svg"
   width="17.4"
   height="11"
   inkscape:version="1.0.1 (c497b03c, 2020-09-10)"><metadata
   id="metadata861"><rdf:RDF><cc:Work
       rdf:about=""><dc:format>image/svg+xml</dc:format><dc:type
         rdf:resource="http://purl.org/dc/dcmitype/StillImage" /><dc:title></dc:title></cc:Work></rdf:RDF></metadata><defs
   id="defs859" /><sodipodi:namedview
   pagecolor="#ffffff"
   bordercolor="#666666"
   borderopacity="1"
   objecttolerance="10"
   gridtolerance="10"
   guidetolerance="10"
   inkscape:pageopacity="0"
   inkscape:pageshadow="2"
   inkscape:window-width="1440"
   inkscape:window-height="855"
   id="namedview857"
   showgrid="false"
   fit-margin-top="0"
   fit-margin-left="0"
   fit-margin-right="0"
   fit-margin-bottom="0"
   inkscape:zoom="24.970942"
   inkscape:cx="3.7580295"
   inkscape:cy="7.4446077"
   inkscape:window-x="0"
   inkscape:window-y="23"
   inkscape:window-maximized="1"
   inkscape:current-layer="Livello_1" />
<style
   type="text/css"
   id="style848">
	.st0{fill:#008ED2;}
</style>
<g
   id="g852"
   transform="translate(-1,-1)">
	<path
   class="st0"
   d="M 6.5,1 C 3.5,1 1,3.5 1,6.5 1,9.5 3.5,12 6.5,12 9.5,12 12,9.5 12,6.5 12,3.5 9.5,1 6.5,1 Z M 9,7 H 7 V 9 H 6 V 7 H 4 V 6 H 6 V 4 h 1 v 2 h 2 z"
   id="path850" />
</g>
<path
   class="st0"
   d="M 16.4,3 14.7,6.1 13,3 h -1 v 5 h 1 V 5.1 L 14.6,8 h 0.1 L 16.3,5.1 V 8 h 1.1 V 3 Z"
   id="path854" />
</svg>
